PathFileType	4	(X/Y/Z)	9_coords_data.trc
DataRate	CameraRate	NumFrames	NumMarkers	Units	OrigDataRate	OrigDataStartFrame	OrigNumFrames
30.0	30.0	8	21	m	30.0	34	56
Frame#	Time	THUMB_TIP	THUMB_IP	THUMB_MCP	THUMB_CMC	INDEX_TIP	INDEX_DIP	INDEX_PIP	INDEX_MCP	MIDDLE_TIP	MIDDLE_DIP	MIDDLE_PIP	MIDDLE_MCP	RING_TIP	RING_DIP	RING_PIP	RING_MCP	PINKY_TIP	PINKY_DIP	PINKY_PIP	PINKY_MCP	WRIST
X1	Y1	Z1	X2	Y2	Z2	X3	Y3	Z3	X4	Y4	Z4	X5	Y5	Z5	X6	Y6	Z6	X7	Y7	Z7	X8	Y8	Z8	X9	Y9	Z9	X10	Y10	Z10	X11	Y11	Z11	X12	Y12	Z12	X13	Y13	Z13	X14	Y14	Z14	X15	Y15	Z15	X16	Y16	Z16	X17	Y17	Z17	X18	Y18	Z18	X19	Y19	Z19	X20	Y20	Z20	X21	Y21	Z21
33	1.1	0.046381099700927735	-0.03809159851074219	1.029550048828125	0.025874300003051756	-0.034819801330566405	1.0468399658203125	0.0029094500541687013	-0.028757999420166016	1.064030029296875	-0.01657080078125	-0.00610984992980957	1.0774100341796875	0.04659249877929687	-0.005607369899749756	0.9651599731445313	0.027717300415039062	-0.010536999702453613	0.975301025390625	0.007637360095977783	-0.01508549976348877	0.986666015625	-0.016097400665283205	-0.01804170036315918	1.0193800048828126	0.054392501831054686	0.025436100006103517	0.9676309814453125	0.03240110015869141	0.020118400573730467	0.9737839965820313	0.003443350076675415	0.014129199981689454	0.9830999755859375	-0.024283599853515626	0.004871610164642334	1.0158300170898438	0.048495098114013674	0.04886529922485352	0.9799580078125	0.026602300643920898	0.04552569961547852	0.9866279907226563	-0.001399899959564209	0.039511398315429686	0.9955230102539062	-0.02781570053100586	0.02687649917602539	1.0231500244140626	0.019162799835205076	0.07489910125732421	1.0015499877929688	0.002297149896621704	0.07031620025634766	1.0102899780273438	-0.013781599998474121	0.06341350173950196	1.0195399780273438	-0.029065200805664063	0.04708610153198242	1.03802001953125	-0.05303260040283203	0.004684780120849609	1.0982900390625
34	1.1333333333333333	0.04765480041503906	-0.034704700469970706	1.029510009765625	0.027121299743652343	-0.03237649917602539	1.04702001953125	0.0039698901176452635	-0.0270492000579834	1.0646400146484376	-0.016092300415039062	-0.004826029777526855	1.0779100341796874	0.047193401336669924	-0.003093420028686523	0.9660349731445312	0.028246299743652344	-0.008614669799804688	0.9757230224609375	0.00822132968902588	-0.01368690013885498	0.9870380249023437	-0.01530109977722168	-0.01703730010986328	1.0198099975585937	0.05167610168457031	0.02793470001220703	0.9641179809570313	0.03015340042114258	0.022018600463867187	0.971489990234375	0.002060060024261474	0.015155400276184082	0.98239501953125	-0.024030500411987305	0.0055423398017883305	1.0159199829101562	0.04536709976196289	0.05125360107421875	0.976489990234375	0.02395050048828125	0.04721070098876953	0.984219970703125	-0.003345200061798095	0.04043349838256836	0.9944320068359375	-0.028074100494384767	0.02751180076599121	1.02302001953125	0.017915300369262695	0.07635800170898438	1.0011400146484375	0.0011450599431991572	0.07149019622802734	1.0100599975585938	-0.014775099754333497	0.06430799865722656	1.0194099731445312	-0.0295093994140625	0.04777130126953125	1.0379599609375	-0.05218899917602539	0.005159170150756836	1.0985899658203124
35	1.1666666666666667	0.049390701293945315	-0.030441600799560545	1.0301300048828126	0.028734300613403322	-0.02919569969177246	1.0475	0.005460440158843994	-0.02455430030822754	1.0649100341796875	-0.014918999671936035	-0.0029365100860595703	1.077969970703125	0.04759379959106445	-0.000615993022918701	0.9665599975585938	0.028811700820922853	-0.006638259887695313	0.9759140014648438	0.00886104965209961	-0.012228500366210938	0.9871320190429688	-0.014344900131225587	-0.015953499794006346	1.0198200073242187	0.045470901489257816	0.03045159912109375	0.9566810302734375	0.025056800842285155	0.023744300842285158	0.96660302734375	-0.001163429975509643	0.0161072998046875	0.980364990234375	-0.02375670051574707	0.0063193697929382325	1.0161699829101563	0.041196300506591794	0.05334080123901367	0.9717979736328125	0.020477399826049805	0.048812400817871096	0.9809619750976563	-0.005829470157623291	0.04143920135498047	0.9930679931640625	-0.028504100799560547	0.028219600677490235	1.0231199951171874	0.016818500518798827	0.07771980285644531	1.0009600219726562	0.00013526399433612802	0.07262139892578125	1.009719970703125	-0.015586700439453125	0.0652239990234375	1.0193499755859374	-0.02988909912109375	0.048551998138427734	1.03806005859375	-0.05153939819335938	0.006007850170135498	1.09893994140625
36	1.2	0.050596298217773436	-0.02602090072631836	1.02993994140625	0.029802799224853516	-0.025985099792480468	1.047469970703125	0.006205770015716552	-0.02230430030822754	1.0651199951171875	-0.014393600463867187	-0.0010547399520874018	1.0784599609375	0.04734930038452148	0.0013619400262832643	0.966666015625	0.02878409957885742	-0.004966750144958496	0.9760020141601562	0.008760600090026856	-0.010924099922180176	0.9869929809570313	-0.01404889965057373	-0.014833399772644043	1.019780029296875	0.03859140014648438	0.031384300231933594	0.9500349731445312	0.019573699951171874	0.024348699569702148	0.9622730102539062	-0.004767199993133545	0.016528499603271483	0.9785430297851563	-0.023724899291992188	0.007229629993438721	1.0161900024414063	0.03695240020751953	0.054499500274658205	0.9678400268554688	0.01668440055847168	0.04970019912719727	0.9782130126953125	-0.00842158031463623	0.04209030151367187	0.9916110229492188	-0.028494400024414064	0.029112300872802734	1.0232899780273437	0.016196100234985352	0.07842420196533204	1.0008300170898436	-0.000453402012586593	0.0733561019897461	1.0095499877929688	-0.016244699478149414	0.06600340270996094	1.0190800170898437	-0.030009199142456054	0.04940710067749023	1.0381199951171876	-0.050849899291992184	0.006885680198669433	1.0989000244140625
37	1.2333333333333334	0.050587299346923825	-0.02193429946899414	1.02906005859375	0.02993549919128418	-0.023084600448608397	1.04681005859375	0.00654863977432251	-0.020455699920654297	1.0649200439453126	-0.014333900451660156	-0.000154025003314018	1.0781800537109374	0.046805099487304686	0.003057679891586303	0.9669509887695312	0.02815220069885254	-0.003603219985961914	0.9758900146484375	0.00809529972076416	-0.009824549674987793	0.9866409912109375	-0.0145177001953125	-0.013934700012207032	1.019760009765625	0.0351254997253418	0.03234780120849609	0.9474710083007812	0.016802000045776366	0.02507819938659668	0.9606480102539062	-0.0066771402359008785	0.017135900497436525	0.9779199829101562	-0.024283700942993165	0.007952179908752442	1.0161799926757813	0.03478310012817383	0.055110298156738284	0.9664140014648438	0.01481599998474121	0.05029999923706055	0.9770919799804687	-0.009950559616088867	0.04264289855957031	0.9910469970703125	-0.029104799270629884	0.029740999221801758	1.02325	0.01571119976043701	0.07814199829101562	1.000780029296875	-0.001108530044555664	0.07351260375976562	1.009219970703125	-0.017022899627685547	0.06645500183105468	1.0186699829101562	-0.030473499298095702	0.05011410140991211	1.0380699462890626	-0.05063560104370117	0.007619629859924317	1.0990400390625
38	1.2666666666666666	0.0500099983215332	-0.019158199310302736	1.0279599609375	0.029716499328613283	-0.0211835994720459	1.0461300048828126	0.006213419914245606	-0.019152599334716795	1.064469970703125	-0.014146699905395507	0.0009323160052299499	1.0775799560546875	0.04601179885864258	0.004275889873504639	0.9670250244140625	0.02729859924316406	-0.002441099882125854	0.9756799926757812	0.007263299942016602	-0.008832830429077149	0.9862490234375	-0.015158300399780273	-0.013159099578857423	1.019530029296875	0.03352410125732422	0.03334550094604492	0.9466400146484375	0.015343000411987304	0.02599530029296875	0.9601500244140625	-0.00786506986618042	0.01799169921875	0.9777000122070313	-0.025004199981689453	0.008773659706115723	1.0162100219726562	0.034063800811767575	0.05590340042114258	0.96652001953125	0.013965900421142579	0.05107559967041016	0.977094970703125	-0.010849900245666504	0.043457401275634765	0.9909140014648438	-0.02975779914855957	0.030512500762939453	1.023260009765625	0.015761899948120116	0.07744819641113282	1.0010800170898437	-0.00144837999343872	0.07342739868164062	1.0091099853515626	-0.01756599998474121	0.06676319885253906	1.0183099975585939	-0.03089609909057617	0.0508140983581543	1.03793994140625	-0.05053049850463867	0.008230110168457032	1.099280029296875
39	1.3	0.049536399841308594	-0.018327600479125978	1.0274100341796875	0.02922529983520508	-0.020560300827026368	1.045699951171875	0.005917809963226319	-0.018611499786376953	1.0643199462890625	-0.01445829963684082	0.00159400999546051	1.0776800537109374	0.045701099395751954	0.005005650043487549	0.9673350219726562	0.02685689926147461	-0.0018257499933242792	0.975655029296875	0.006762159824371338	-0.008236249923706055	0.9860919799804687	-0.015581199645996094	-0.012753100395202636	1.0195	0.03393939971923828	0.03396200180053711	0.9472739868164063	0.015589500427246094	0.026694099426269532	0.9604669799804687	-0.007850110054016113	0.018616199493408203	0.9777109985351562	-0.025441699981689454	0.009262619972229004	1.0161099853515625	0.034617099761962894	0.05651900100708008	0.9675819702148437	0.014353599548339844	0.05183089828491211	0.9777479858398438	-0.010787899971008302	0.04422320175170898	0.9909849853515625	-0.03018239974975586	0.03101569938659668	1.0230599975585937	0.015983200073242186	0.07671029663085938	1.001489990234375	-0.001475880026817321	0.07326339721679688	1.0088800048828126	-0.017979000091552736	0.06698370361328125	1.0178599853515624	-0.0313568000793457	0.05136890029907227	1.03775	-0.05083980178833008	0.008748550415039063	1.0993199462890626
40	1.3333333333333333	0.04924520111083985	-0.017388700485229492	1.0273499755859374	0.02894529914855957	-0.019693099975585937	1.0454599609375	0.005697010040283203	-0.017904699325561522	1.0641700439453126	-0.01504189968109131	0.002273699998855591	1.0781199951171876	0.046069900512695314	0.005791450023651123	0.9682979736328124	0.027136600494384766	-0.001139279961585998	0.9761589965820312	0.006757760047912597	-0.007703310012817383	0.986239013671875	-0.015749600410461424	-0.012447600364685058	1.0194600219726562	0.03597320175170898	0.03460120010375976	0.9492479858398437	0.017170499801635743	0.027371200561523437	0.961655029296875	-0.006926670074462891	0.019298900604248048	0.9780239868164062	-0.025695600509643556	0.009602020263671875	1.0158200073242187	0.03576139831542969	0.05688479995727539	0.9691909790039063	0.015257900238037109	0.05227939987182617	0.9787429809570313	-0.01022570037841797	0.044682098388671876	0.991322998046875	-0.030540399551391602	0.031410299301147464	1.0229000244140625	0.016696399688720703	0.07622789764404297	1.0026699829101562	-0.000885653018951416	0.07321199798583984	1.0093400268554686	-0.017851600646972655	0.06719339752197266	1.0178400268554688	-0.031624000549316404	0.051736900329589844	1.0375699462890624	-0.05120909881591797	0.009110779762268066	1.0993499755859375
